# xmcd CD database file
#
# Track frame offsets:
#	150
#	30697
#	51397
#	71882
#	90182
#	111330
#	137430
#	159225
#	186555
#	211755
#
# Disc length: 3209 seconds
#
# Revision: 0
# Processed by: cddbd v1.5.2PL0 Copyright (c) Steve Scherf et al.
# Submitted via: CDex 1.70beta2
#
DISCID=880c870a
DTITLE=Great Jazz Trio - Great Standards Vol. 5
DYEAR=1990
DGENRE=Jazz
TTITLE0=Tenderly
TTITLE1=I Can't Give You Anything But Love
TTITLE2=When You Wish Upon a Star
TTITLE3=September Song
TTITLE4=Fly Me to The Moon
TTITLE5=My Foolish Heart
TTITLE6=The Way You Look Tonight
TTITLE7=I Left My Heart in San Francisco
TTITLE8=My Romance
TTITLE9=Lover, Come Back to Me
EXTD=YEAR: 1990
EXTT0=
EXTT1=
EXTT2=
EXTT3=
EXTT4=
EXTT5=
EXTT6=
EXTT7=
EXTT8=
EXTT9=
PLAYORDER=
